<svg width="25" height="25" viewBox="0 0 25 25" fill="none" xmlns="http://www.w3.org/2000/svg">
<path d="M12.5 9.24548C10.708 9.24548 9.2456 10.7079 9.2456 12.4999C9.2456 14.2919 10.708 15.7543 12.5 15.7543C14.292 15.7543 15.7544 14.2919 15.7544 12.4999C15.7544 10.7079 14.292 9.24548 12.5 9.24548ZM22.2607 12.4999C22.2607 11.1522 22.2729 9.81676 22.1973 8.47155C22.1216 6.90905 21.7651 5.52233 20.6226 4.37975C19.4775 3.23473 18.0933 2.88073 16.5308 2.80505C15.1831 2.72936 13.8476 2.74157 12.5024 2.74157C11.1548 2.74157 9.81933 2.72936 8.47411 2.80505C6.91161 2.88073 5.5249 3.23718 4.38232 4.37975C3.2373 5.52477 2.88329 6.90905 2.80761 8.47155C2.73193 9.81921 2.74413 11.1547 2.74413 12.4999C2.74413 13.8451 2.73193 15.183 2.80761 16.5282C2.88329 18.0907 3.23974 19.4774 4.38232 20.62C5.52734 21.765 6.91161 22.119 8.47411 22.1947C9.82177 22.2704 11.1572 22.2582 12.5024 22.2582C13.8501 22.2582 15.1855 22.2704 16.5308 22.1947C18.0933 22.119 19.48 21.7626 20.6226 20.62C21.7676 19.475 22.1216 18.0907 22.1973 16.5282C22.2754 15.183 22.2607 13.8475 22.2607 12.4999ZM12.5 17.5072C9.729 17.5072 7.49267 15.2709 7.49267 12.4999C7.49267 9.72887 9.729 7.49255 12.5 7.49255C15.271 7.49255 17.5073 9.72887 17.5073 12.4999C17.5073 15.2709 15.271 17.5072 12.5 17.5072ZM17.7124 8.4569C17.0654 8.4569 16.543 7.93444 16.543 7.28747C16.543 6.6405 17.0654 6.11804 17.7124 6.11804C18.3594 6.11804 18.8818 6.6405 18.8818 7.28747C18.882 7.44109 18.8519 7.59325 18.7932 7.73522C18.7345 7.87719 18.6484 8.00618 18.5397 8.11481C18.4311 8.22344 18.3021 8.30958 18.1601 8.36828C18.0182 8.42698 17.866 8.45709 17.7124 8.4569Z" fill="#53CD8B"/>
</svg>
