<svg width="26" height="23" viewBox="0 0 26 23" fill="none" xmlns="http://www.w3.org/2000/svg">
<path d="M24.6007 3.9748C24.7677 3.41328 24.6007 3 23.7972 3H21.1386C20.4615 3 20.15 3.35488 19.983 3.7502C19.983 3.7502 18.6288 7.03398 16.7149 9.16328C16.0965 9.77871 15.8122 9.97637 15.4736 9.97637C15.3066 9.97637 15.0493 9.77871 15.0493 9.21719V3.9748C15.0493 3.30098 14.8597 3 14.3 3H10.1202C9.69585 3 9.44307 3.31445 9.44307 3.60645C9.44307 4.24434 10.4 4.39258 10.4993 6.18945V10.0887C10.4993 10.9422 10.3458 11.0994 10.0073 11.0994C9.10453 11.0994 6.91078 7.80215 5.61078 4.02871C5.34898 3.29648 5.09168 3 4.41009 3H1.75141C0.993072 3 0.8396 3.35488 0.8396 3.7502C0.8396 4.45098 1.74238 7.93242 5.04203 12.5324C7.24029 15.6725 10.3368 17.375 13.1535 17.375C14.8462 17.375 15.0538 16.9977 15.0538 16.3463C15.0538 13.3455 14.9004 13.0625 15.749 13.0625C16.1417 13.0625 16.8188 13.2602 18.3986 14.774C20.2042 16.5709 20.5021 17.375 21.5132 17.375H24.1719C24.9302 17.375 25.3139 16.9977 25.0927 16.252C24.5872 14.6842 21.1702 11.4588 21.0167 11.2432C20.624 10.74 20.7368 10.5154 21.0167 10.0662C21.0212 10.0617 24.2667 5.51562 24.6007 3.9748Z" fill="#53CD8B"/>
</svg>
