<svg width="75" height="75" viewBox="0 0 75 75" fill="none" xmlns="http://www.w3.org/2000/svg">
<path d="M9.87239 23.007C8.45896 26.1166 7.04554 28.9434 6.48016 32.053C6.19748 32.901 6.19748 33.1837 6.19748 33.1837C4.78405 38.5547 4.78405 44.2085 5.63211 49.0141C7.04554 56.6466 11.0031 60.6042 13.2646 60.8869C16.3742 61.4523 19.7664 59.7562 23.1586 56.6466C26.8335 53.5371 37.0102 47.0353 42.6639 42.795C48.3176 38.5547 50.0137 27.8127 50.5791 17.9187C51.1445 8.02471 53.1233 5.19786 55.1021 2.65369C55.6674 1.80563 56.5155 1.24026 57.3636 0.957574C33.0526 -3.28271 15.5261 10.2862 9.87239 23.007Z" fill="#DDDF4A"/>
<path d="M42.6638 10.8518C33.6179 17.0708 29.0949 34.88 25.9853 42.5125C22.8758 49.8624 18.6355 53.5373 16.9394 54.9507C15.2433 56.3641 13.2645 57.7776 13.5472 58.6256C13.8299 59.4737 16.9394 58.0602 17.7875 57.2122C27.1161 48.7316 29.9429 35.4454 29.9429 35.4454C34.1832 17.6362 42.6638 10.8518 42.6638 10.8518ZM22.5931 36.8588C22.8758 33.1839 22.0277 21.0284 22.0277 18.4843C22.3104 13.3959 25.7027 9.43834 26.268 8.59028C25.1373 10.0037 21.1797 13.3959 21.4624 19.0496C21.7451 24.7034 22.3104 33.4666 21.1797 36.5761C20.0489 39.6857 18.9182 41.9472 19.4836 42.7952C19.4836 42.5125 22.3104 40.8164 22.5931 36.8588ZM26.268 8.59028C26.5507 8.59028 26.5507 8.59028 26.268 8.59028C26.5507 8.59028 26.5507 8.59028 26.268 8.59028ZM38.4235 34.5974C35.8793 36.0108 31.0737 36.8588 31.0737 38.5549C31.0737 39.9684 41.8157 35.7281 44.3599 27.8129C44.3599 27.5302 40.9677 32.9012 38.4235 34.5974ZM31.0737 21.3111C31.0737 20.7458 29.6603 16.2228 30.791 13.1133C31.6391 9.72102 33.3352 6.89417 34.1832 6.04611C32.7698 7.74223 29.6603 11.9825 29.9429 18.2016C30.2256 24.7034 31.0737 21.8765 31.0737 21.3111ZM34.1832 6.04611L34.4659 5.76343C34.4659 5.76343 34.4659 5.76343 34.1832 6.04611Z" fill="url(#paint0_linear_40_884)"/>
<path d="M28.8126 57.2123C32.2048 54.6681 42.6642 49.0144 45.4911 45.6222C48.3179 42.2299 51.4275 37.9896 51.1448 26.6822C50.8621 15.3748 50.2967 6.89424 55.9504 4.63276C55.9504 4.63276 60.1907 4.06739 59.908 1.8059C59.6253 -0.455582 56.2331 -0.172897 54.2543 2.37127C51.9928 4.91544 50.2967 7.7423 49.7313 17.6363C49.166 27.5303 47.7526 38.2723 42.0988 42.5126C36.4451 46.7529 26.5511 53.2547 22.8762 56.3642C19.484 59.4737 16.0918 61.1699 12.9822 60.6045C9.87269 60.0391 3.37092 52.4066 5.06704 37.4243C5.06704 37.4243 5.91509 34.5974 4.21898 34.3147C2.52287 34.0321 1.9575 37.1416 1.9575 37.1416C1.9575 37.1416 -0.303988 47.8836 1.9575 56.9296C4.21898 65.9755 6.76315 72.1946 11.5688 73.608C11.5688 73.608 14.961 73.8907 15.8091 73.608C16.9398 73.3253 18.6359 72.4773 20.0494 69.0851C21.7455 65.6928 25.1377 59.7564 28.8126 57.2123ZM42.3815 0.675159C42.3815 0.675159 28.5299 -0.738269 14.113 14.2441C14.113 14.2441 6.76315 23.29 6.19778 27.813C5.63241 32.6186 5.91509 33.184 5.91509 33.184C5.91509 33.184 11.0034 4.63276 42.3815 0.675159ZM74.6077 69.0851C74.325 68.5197 73.4769 69.3677 73.4769 69.3677C69.802 71.0639 65.5617 71.6292 64.7137 71.3465C63.5829 71.0639 64.7137 69.6504 64.9964 68.8024C65.2791 67.9543 64.1483 67.6716 63.5829 68.5197C60.4734 71.9119 50.2967 73.608 57.9292 64.8448C60.1907 62.3006 63.8656 60.8872 65.279 61.7352C66.6925 62.3006 66.1271 63.9967 65.5617 64.8448C65.5617 64.8448 64.1483 66.2582 64.9964 66.5409C65.8444 66.8236 66.6925 65.9755 66.6925 65.9755C70.3674 62.0179 66.9752 55.5162 57.0812 63.4313C51.7101 67.6716 51.7101 73.0427 54.537 73.608C57.3639 74.1734 62.1695 71.0639 62.1695 71.0639C61.8868 71.6292 61.8868 72.76 63.3003 73.3253C65.2791 73.8907 71.4981 71.0639 73.1942 70.2158C74.8904 69.3677 74.6077 69.0851 74.6077 69.0851ZM35.0317 56.9296C34.1836 58.0603 34.1836 59.4737 35.0317 60.0391C35.8798 60.6045 37.0105 60.0391 37.8586 58.6257C38.7066 57.4949 38.7066 56.0815 37.8586 55.5162C37.0105 55.2335 35.8798 55.7988 35.0317 56.9296ZM47.4699 67.6716C48.0352 65.9755 52.5582 58.0603 52.5582 58.0603C52.5582 58.0603 56.7985 58.0603 58.2119 57.7776C59.6253 57.4949 58.2119 56.9296 58.2119 56.9296L53.4063 56.6469C53.4063 56.6469 57.9292 48.449 62.4522 43.926C63.3003 43.078 65.5617 41.3819 62.4522 41.6646C59.6253 41.9472 57.9292 44.7741 57.6465 45.6222C57.3639 46.4702 51.9928 56.3642 51.9928 56.3642L47.1872 55.7988C47.1872 55.7988 46.0564 55.7988 46.0564 56.9296C46.0564 57.2123 46.0564 57.2123 46.0564 57.2123C46.0564 57.4949 46.3391 57.7776 46.6218 57.7776L50.8621 58.0603L44.9257 67.6716C44.9257 67.6716 40.12 69.6504 36.4451 70.7812C32.7702 71.9119 30.7914 70.7812 34.749 63.9967C35.3144 63.1487 34.4663 62.0179 33.6183 62.0179C32.7702 62.0179 32.2048 64.5621 32.2048 64.5621C32.2048 64.5621 31.3568 66.8236 28.2473 67.9543C27.1165 68.5197 24.2897 68.5197 24.855 69.6504C25.4204 70.2158 30.7914 67.9543 30.7914 67.9543C30.7914 67.9543 28.5299 72.4773 29.6607 73.3253C30.7914 74.4561 34.749 72.76 34.749 72.76L44.3603 69.0851C44.3603 69.0851 42.6642 72.4773 44.3603 73.608C46.0564 74.7388 50.5794 73.608 51.1448 71.9119C52.5582 68.8024 44.9257 74.4561 47.4699 67.6716Z" fill="url(#paint1_linear_40_884)"/>
<defs>
<linearGradient id="paint0_linear_40_884" x1="13.455" y1="32.3353" x2="44.4385" y2="32.3353" gradientUnits="userSpaceOnUse">
<stop stop-color="#00513A"/>
<stop offset="1" stop-color="#BBCF00"/>
</linearGradient>
<linearGradient id="paint1_linear_40_884" x1="37.9289" y1="73.9563" x2="37.9289" y2="0.605053" gradientUnits="userSpaceOnUse">
<stop stop-color="#005454"/>
<stop offset="1" stop-color="#BBCF00"/>
</linearGradient>
</defs>
</svg>
